<?xml version="1.0" encoding="UTF-8"?>
<svg width="100px" height="31px" viewBox="0 0 100 31" version="1.1" xmlns="http://www.w3.org/2000/svg" xmlns:xlink="http://www.w3.org/1999/xlink">
    <!-- Generator: sketchtool 57 (101010) - https://sketch.com -->
    <title>10C85F5A-AD00-47EA-B990-CB070936C1E7</title>
    <defs>
        <linearGradient x1="40.5364351%" y1="144.570586%" x2="24.8669104%" y2="301.872682%" id="linearGradient-1">
            <stop stop-color="#ED1C24" offset="2%"></stop>
            <stop stop-color="#BE1E2D" offset="100%"></stop>
        </linearGradient>
        <linearGradient x1="49.9983656%" y1="7.40771812%" x2="49.9983656%" y2="70.4278523%" id="linearGradient-2">
            <stop stop-color="#ED1C24" offset="2%"></stop>
            <stop stop-color="#BE1E2D" offset="100%"></stop>
        </linearGradient>
        <linearGradient x1="49.9919491%" y1="22.2881356%" x2="49.9919491%" y2="105.805085%" id="linearGradient-3">
            <stop stop-color="#ED1C24" offset="2%"></stop>
            <stop stop-color="#BE1E2D" offset="100%"></stop>
        </linearGradient>
    </defs>
    <g id="Homepage" stroke="none" stroke-width="1" fill="none" fill-rule="evenodd">
        <g id="Home-Experiment" transform="translate(-161.000000, -62.000000)" fill-rule="nonzero">

            <g id="Navbar">
                <g id="PayFast-Logo-Colour" transform="translate(161.000000, 62.000000)">
                    <path d="M98.162406,10.9789474 C97.5739624,11.334191 96.9500266,11.6270074 96.3007519,11.8526316 C95.5932149,12.1302995 94.8527371,12.3152926 94.0977444,12.4030075 C93.7774436,12.4556391 93.4511278,12.5007519 93.1172932,12.5338346 L93.1112782,12.5338346 C90.0240602,12.7984962 87.3879699,12.1353383 85.881203,10.7157895 C85.8661654,10.7067669 85.8571429,10.6887218 85.8421053,10.6796992 C85.8421053,10.7338346 85.8421053,10.7894737 85.8421053,10.8496241 C85.8487879,11.4816806 86.083786,12.0900053 86.5037594,12.562406 C87.7278195,13.9669173 90.081203,14.7323308 92.8195489,14.7759398 C94.6421053,14.7879699 96.3052632,14.4451128 97.5789474,13.8330827 C98.1806096,13.5547673 98.7213041,13.1602341 99.1699248,12.6721805 C99.5994538,12.2061922 99.8457124,11.600428 99.8631582,10.9669173 C99.863357,10.570134 99.7679312,10.1791464 99.5849624,9.82706767 C99.1695816,10.2784465 98.6903059,10.6665281 98.162406,10.9789474 L98.162406,10.9789474 Z M92.7819549,9.03909774 C89.8962406,9.26015038 87.4105263,8.72030075 85.8646617,7.49022556 C85.9114255,8.06554996 86.1417926,8.61062922 86.5218045,9.04511278 C87.7443609,10.4511278 90.0992481,11.2135338 92.837594,11.2571429 C94.6631579,11.2691729 96.3233083,10.9263158 97.5954887,10.312782 C98.1991241,10.0377542 98.7408318,9.64336647 99.1879699,9.15338346 C99.6164783,8.68520144 99.8615746,8.0780675 99.8781955,7.44360902 C99.8781955,6.95155676 99.7333492,6.47039083 99.4616541,6.06015038 C99.0541353,6.58947368 97.3533835,8.68721805 92.7819549,9.03609023 L92.7819549,9.03909774 Z M92.8646617,7.73984962 C94.6902256,7.75037594 96.3503759,7.40902256 97.6210526,6.79398496 C98.2254364,6.51807253 98.7680558,6.12325424 99.2165414,5.63308271 C100.126041,4.68016587 100.138548,3.18453554 99.2451128,2.21654135 C98.0195489,0.809022556 95.6691729,0.0466165414 92.9293233,0.0030075188 C91.1052632,-0.00902255639 89.443609,0.332330827 88.1729323,0.944360902 C87.5708042,1.22329363 87.0296392,1.61830829 86.5804511,2.10676692 C86.1564037,2.57331711 85.9127236,3.17585199 85.8932331,3.80601504 C85.9001824,4.43937094 86.1350749,5.04902393 86.5548872,5.52330827 C87.7729323,6.92932331 90.1308271,7.69022556 92.8646617,7.73684211 L92.8646617,7.73984962 Z M87.5383459,2.42706767 C88.2045113,1.61503759 90.2691729,0.82556391 92.6857143,0.864661654 C94.3022556,0.87518797 95.7503759,1.21954887 96.7293233,1.72030075 C97.1390846,1.90870341 97.5059972,2.17889846 97.8075188,2.51428571 C97.9860084,2.69979475 98.0903297,2.94428103 98.1007519,3.20150376 C98.0879322,3.45921065 97.9809049,3.70323274 97.8,3.88721805 C97.1383459,4.69774436 95.0706767,5.49022556 92.6526316,5.4481203 C91.037594,5.43759398 89.5894737,5.09172932 88.6105263,4.5924812 C88.2030952,4.40147117 87.8368527,4.13279119 87.5323308,3.80150376 C87.3509234,3.61481594 87.2439686,3.3682851 87.2315789,3.10827068 C87.2471057,2.85133293 87.3562404,2.60898982 87.5383459,2.42706767 L87.5383459,2.42706767 Z" id="Shape" fill="url(#linearGradient-1)"></path>
                    <path d="M25.0962406,9.54736842 C24.4486216,8.79749373 23.5318296,8.42255639 22.3458647,8.42255639 L16.9323308,8.42255639 L16.5293233,10.4721805 L21.9428571,10.4721805 C22.5172932,10.4721805 22.9614035,10.6696742 23.275188,11.0646617 C23.59452,11.4768908 23.7090607,12.0119673 23.5864662,12.518797 L23.5052632,12.8691729 L23.4781955,13.112782 L18.4661654,13.112782 C17.28996,13.1093176 16.1499121,13.5191387 15.2451128,14.2706767 C14.310869,15.0001746 13.6737869,16.0445188 13.4526316,17.2090226 L13.4,17.4240602 C13.1473684,18.6090226 13.3403509,19.5884712 13.9789474,20.362406 C14.6175439,21.1363409 15.5293233,21.5223058 16.7142857,21.5203085 L23.8015038,21.5203085 L25.7157895,12.4120301 C25.9493734,11.2481203 25.7428571,10.2932331 25.0962406,9.54736842 Z M22.1578947,19.4721805 L17.1458647,19.4721805 C16.6245815,19.4957865 16.1216643,19.2770786 15.7834586,18.8796992 C15.4506266,18.4857143 15.3473684,18.0005013 15.4736842,17.4240602 L15.5278195,17.2090226 C15.638657,16.6291017 15.9600144,16.1106452 16.4300752,15.7533835 C16.8786471,15.3744449 17.4458893,15.1647888 18.0330827,15.1609023 L23.0180451,15.1609023 L22.1578947,19.4721805 Z M37.2706767,8.42255639 L34.9789474,19.4451128 L29.8030075,19.4451128 C29.2857962,19.4676108 28.7868861,19.2514164 28.4496241,18.8586466 C28.1172932,18.4646617 28.0150376,17.9774436 28.1488722,17.4030075 L29.993985,8.42255639 L27.918797,8.42255639 L26.0601504,17.3969925 C25.8075188,18.5839599 26.0050125,19.5634085 26.6526316,20.3353383 C27.3002506,21.1072682 28.2165414,21.4972431 29.4015038,21.5052632 L34.6030075,21.5052632 L34.4406015,22.2571429 C34.3053885,22.8302011 33.9772782,23.3393561 33.5112782,23.6992481 C33.0734688,24.0795438 32.5151968,24.2926248 31.9353383,24.3007519 L24.8406015,24.3007519 L24.4105263,26.3473684 L31.4977444,26.3473684 C32.6647394,26.3413179 33.7917388,25.9214241 34.6781955,25.162406 C35.6094713,24.4367186 36.2591617,23.4095486 36.5157895,22.2571429 L39.3729323,8.43157895 L37.2706767,8.42255639 Z" id="Shape" fill="url(#linearGradient-2)"></path>
                    <path d="M58.8962406,21.5263158 L51.8075188,21.5263158 C50.6215539,21.5263158 49.7097744,21.1403509 49.0721805,20.3684211 C48.4345865,19.5964912 48.241604,18.6170426 48.4932331,17.4300752 L48.5473684,17.2150376 C48.7678747,16.050653 49.4044551,15.0062549 50.3383459,14.2766917 C51.2437996,13.5252727 52.3842689,13.1154913 53.5609023,13.118797 L58.5714286,13.118797 L58.6,12.875188 L58.6796992,12.524812 C58.8027147,12.01821 58.6887323,11.4831571 58.3699248,11.0706767 C58.0460648,10.670695 57.5499919,10.4503424 57.0360902,10.4781955 L51.2045113,10.4781955 L51.6075188,8.42255639 L57.4406015,8.42255639 C58.6255639,8.42255639 59.5418546,8.79548872 60.1894737,9.54135338 C60.8370927,10.287218 61.043609,11.2441103 60.8090226,12.4120301 L58.8962406,21.5263158 Z M57.2511278,19.4781955 L58.1142857,15.1669173 L53.1278195,15.1669173 C52.5407188,15.1713114 51.9736437,15.3809058 51.524812,15.7593985 C51.0557089,16.11753 50.7345989,16.6355875 50.6225564,17.2150376 L50.5699248,17.4300752 C50.443609,18.0055138 50.5468672,18.4907268 50.8796992,18.8857143 C51.2172971,19.2830411 51.719752,19.5017894 52.2406015,19.4781955 L57.2511278,19.4781955 Z" id="Shape" fill="#231F20"></path>
                    <path d="M72.4902256,18.0225564 C72.2784061,19.121349 71.6264387,20.0857175 70.6857143,20.6917293 C69.775847,21.29347 68.7041389,21.6034942 67.6135338,21.5804511 L60.606015,21.5804511 L61.037594,19.5323308 L68.0451128,19.5323308 C69.4275689,19.5323308 70.2180451,19.0310777 70.4165414,18.0285714 L70.524812,17.5443609 C70.7403509,16.5418546 70.156391,16.0406015 68.7729323,16.0406015 L65.6150376,16.0406015 C64.4461153,16.0406015 63.5478697,15.7438596 62.9203008,15.1503759 C62.2015038,14.5037594 61.958396,13.6150376 62.1909774,12.4842105 L62.2992481,11.9984962 C62.510404,10.8994291 63.162533,9.93482164 64.1037594,9.32932331 C65.0133641,8.72146994 66.0865753,8.40517163 67.1804511,8.42255639 L74.2150376,8.42255639 L73.8105263,10.4721805 L66.7759398,10.4721805 C65.3924812,10.4721805 64.5929825,10.9734336 64.3774436,11.9759398 L64.2706767,12.4616541 C64.0701754,13.4641604 64.6631579,13.9654135 66.0496241,13.9654135 L69.2075188,13.9654135 C70.3744361,13.9654135 71.273183,14.2621554 71.9037594,14.8556391 C72.6055138,15.5022556 72.8385965,16.3914787 72.6030075,17.5233083 L72.4902256,18.0225564 Z" id="Path" fill="#231F20"></path>
                    <path d="M81.9593985,21.5052632 L78.675188,21.5052632 C77.4882206,21.5052632 76.5719298,21.118797 75.9263158,20.3458647 C75.2807018,19.5729323 75.083208,18.5934837 75.3338346,17.4075188 L76.7849624,10.3774436 L75.4917293,10.3774436 L75.9428571,8.27218045 L77.2360902,8.27218045 L78.206015,3.58345865 L80.3112782,3.58345865 L79.3458647,8.27218045 L83.7067669,8.27218045 L83.2556391,10.3774436 L78.8947368,10.3774436 L77.4390977,17.4105263 C77.3142857,17.9849624 77.4120301,18.4721805 77.7398496,18.8661654 C78.0716463,19.2669047 78.5737199,19.4867014 79.0932331,19.4586466 L82.3819549,19.4586466 L81.9593985,21.5052632 Z" id="Path" fill="#231F20"></path>
                    <path d="M15.6781955,9.62556391 C15.444038,10.7667235 14.8072968,11.7856163 13.8842105,12.4962406 C12.918797,13.275188 11.8691729,13.6646617 10.7353383,13.6646617 L3.66766917,13.6646617 L2.04661654,21.5263158 L7.10542736e-15,21.5263158 L3.69473684,3.78195489 L12.8105263,3.78195489 C13.9433584,3.78195489 14.8245614,4.17142857 15.4541353,4.95037594 C16.0837093,5.72932331 16.2842105,6.68621554 16.0556391,7.82105263 L15.6781955,9.62556391 Z M13.6330827,9.62556391 L14.0045113,7.82105263 C14.1278195,7.25413534 14.0315789,6.77593985 13.7112782,6.38496241 C13.3853559,5.99208585 12.893282,5.77586312 12.3834586,5.80150376 L5.31578947,5.80150376 L4.0887218,11.6406015 L11.156391,11.6406015 C11.7316269,11.6380788 12.2871457,11.4306923 12.7233083,11.0556391 C13.183695,10.6992975 13.5054211,10.193576 13.6330827,9.62556391 L13.6330827,9.62556391 Z" id="Shape" fill="url(#linearGradient-3)"></path>
                    <path d="M55.2977444,5.63308271 L46.7112782,5.63308271 C45.5003535,5.67220825 44.4629164,6.5112485 44.1714286,7.68721805 L43.3684211,11.6105263 L48.7263158,11.6105263 L48.2992481,13.6857143 L42.962406,13.6857143 L41.3082707,21.5458647 L39.2255639,21.5458647 L42.0827068,7.68120301 C42.6075859,5.303403 44.7019614,3.60098294 47.1368421,3.57293233 L55.7233083,3.57293233 L55.2977444,5.63308271 Z" id="Path" fill="#231F20"></path>
                    <path d="M39.4120301,25.4917293 L40.0135338,25.4917293 L41.6827068,29.3654135 L40.8947368,29.3654135 L40.5338346,28.4796992 L38.8496241,28.4796992 L38.4992481,29.3654135 L37.7263158,29.3654135 L39.4120301,25.4917293 Z M40.2887218,27.8887218 L39.687218,26.3112782 L39.0857143,27.8887218 L40.2887218,27.8887218 Z" id="Shape" fill="#231F20"></path>
                    <path d="M43.4300752,25.4917293 L44.8045113,25.4917293 C45.0607746,25.4918245 45.315975,25.524672 45.5639098,25.5894737 C45.813024,25.6523033 46.0474816,25.7631471 46.2541353,25.9157895 C46.4647961,26.0746176 46.6352747,26.280634 46.7518797,26.5172932 C46.8886233,26.8032143 46.9546379,27.1178152 46.9443609,27.4345865 C46.9524166,27.7376364 46.8863421,28.0380687 46.7518797,28.3097744 C46.6318471,28.5441958 46.4619564,28.7495017 46.2541353,28.9112782 C46.0474621,29.0686605 45.8134459,29.1864334 45.5639098,29.2586466 C45.3172993,29.3314023 45.061628,29.3688671 44.8045113,29.3699248 L43.4300752,29.3699248 L43.4300752,25.4917293 Z M44.6902256,28.7639098 C44.8705227,28.7637821 45.0501872,28.7425857 45.2255639,28.7007519 C45.3995996,28.6611849 45.5644645,28.5887056 45.7112782,28.487218 C45.8594708,28.3814706 45.9801391,28.2417223 46.0631579,28.0796992 C46.1615869,27.8771998 46.2085871,27.6535615 46.2,27.4285714 C46.2096133,27.1947892 46.1626706,26.9621394 46.0631579,26.7503759 C45.9822515,26.5861217 45.8612261,26.4449254 45.7112782,26.3398496 C45.5648616,26.2398574 45.3995882,26.1707803 45.2255639,26.1368421 C45.049431,26.100417 44.8700846,26.081777 44.6902256,26.081203 L44.1157895,26.081203 L44.1157895,28.7639098 L44.6902256,28.7639098 Z" id="Shape" fill="#231F20"></path>
                    <path d="M47.6120301,25.4917293 L48.875188,25.4917293 C49.0772053,25.48981 49.2788499,25.5094704 49.4766917,25.5503759 C49.6413799,25.5849837 49.7973813,25.6524991 49.9353383,25.7488722 C50.0637646,25.8375404 50.1673121,25.9576554 50.2360902,26.0977444 C50.3092878,26.259599 50.3447667,26.4359652 50.3398496,26.6135338 C50.3458809,26.8012274 50.3045062,26.9874134 50.2195489,27.1548872 C50.141872,27.2975187 50.0303297,27.4188726 49.8947368,27.5082707 C49.7476607,27.6009747 49.5852108,27.6666676 49.4150376,27.7022556 C49.2243395,27.7434956 49.0296888,27.7636667 48.8345865,27.762406 L48.2992481,27.762406 L48.2992481,29.3654135 L47.6105263,29.3654135 L47.6120301,25.4917293 Z M48.7834586,27.1819549 C48.8911982,27.1825703 48.9988129,27.1745244 49.1052632,27.1578947 C49.2007107,27.1434079 49.2931539,27.1134401 49.3789474,27.0691729 C49.4571277,27.0300409 49.5235421,26.9708905 49.5714286,26.8977444 C49.6215571,26.811665 49.6460763,26.7130665 49.6421053,26.6135338 C49.6577168,26.4248167 49.5538114,26.2464358 49.3819549,26.1669173 C49.2979489,26.125232 49.2074116,26.0982743 49.1142857,26.087218 C49.0115766,26.073826 48.9080891,26.0672953 48.8045113,26.0676692 L48.2992481,26.0676692 L48.2992481,27.1789474 L48.7834586,27.1819549 Z" id="Shape" fill="#231F20"></path>
                    <path d="M50.7639098,27.4180451 C50.7578614,27.1306502 50.8089763,26.8449177 50.9142857,26.5774436 C51.011749,26.3369495 51.1588045,26.1196968 51.3458647,25.9398496 C51.5349758,25.7615328 51.7586243,25.6238636 52.0030075,25.5353383 C52.2676957,25.4350286 52.5485223,25.3840619 52.8315789,25.3849432 C53.1175923,25.3838063 53.4014237,25.4347635 53.6691729,25.5353383 C53.9153827,25.623782 54.141015,25.7614126 54.3323308,25.9398496 C54.5207902,26.1191393 54.668934,26.3364851 54.7669173,26.5774436 C54.8722267,26.8449177 54.9233416,27.1306502 54.9172932,27.4180451 C54.9225446,27.7014696 54.8714296,27.9831129 54.7669173,28.2466165 C54.6675421,28.4890287 54.5196512,28.7085623 54.3323308,28.8917293 C54.1419224,29.0757176 53.9163771,29.2194324 53.6691729,29.3142857 C53.4018115,29.4162632 53.1177166,29.4672677 52.8315789,29.4646617 C52.5483976,29.4669935 52.2673095,29.4159793 52.0030075,29.3142857 C51.5078981,29.1245334 51.1136683,28.7379269 50.9142857,28.2466165 C50.8097734,27.9831129 50.7586584,27.7014696 50.7639098,27.4180451 Z M51.5157895,27.4180451 C51.5135135,27.6126108 51.5455841,27.8060521 51.6105263,27.9894737 C51.6710581,28.1564522 51.7640775,28.309781 51.8842105,28.4406015 C52.0030293,28.568676 52.1468416,28.6710335 52.3067669,28.7413534 C52.4768744,28.8138755 52.6602033,28.850234 52.8451128,28.8481203 C53.0309811,28.8500847 53.2152616,28.8137405 53.3864662,28.7413534 C53.5477261,28.6718488 53.6926796,28.5694081 53.8120301,28.4406015 C53.9316886,28.309698 54.0241997,28.1563646 54.0842105,27.9894737 C54.1503195,27.8063156 54.1829195,27.6127531 54.1804511,27.4180451 C54.1825593,27.2272856 54.1499483,27.0377337 54.0842105,26.8586466 C54.0247209,26.6918433 53.9327181,26.5385053 53.8135338,26.4075188 C53.6960636,26.2785832 53.5525457,26.1760704 53.3924812,26.1067669 C53.2199074,26.0316673 53.0332992,25.9942431 52.8451128,25.9969925 C52.6578814,25.9940671 52.4722168,26.0315077 52.3007519,26.1067669 C52.141582,26.1768783 51.9987137,26.2792928 51.881203,26.4075188 C51.7630723,26.5392856 51.6712002,26.6924057 51.6105263,26.8586466 C51.5454877,27.0379198 51.5128986,27.2273439 51.5142857,27.4180451 L51.5157895,27.4180451 Z" id="Shape" fill="#231F20"></path>
                    <path d="M59.762406,26.4 C59.6612515,26.2628901 59.5222132,26.15835 59.362406,26.0992481 C59.0314986,25.9662218 58.6611273,25.9710951 58.3338346,26.112782 C58.1728712,26.1820371 58.0283606,26.2845269 57.9097744,26.4135338 C57.789154,26.5439876 57.6960716,26.6974202 57.6360902,26.8646617 C57.5703525,27.0437487 57.5377414,27.2333006 57.5398496,27.4240602 C57.53705,27.620994 57.5685999,27.8169087 57.6330827,28.0030075 C57.690151,28.1696133 57.7801576,28.3230337 57.8977444,28.4541353 C58.0133442,28.5796005 58.1543075,28.6790437 58.3112782,28.7458647 C58.482413,28.8183242 58.666814,28.85418 58.8526316,28.8511278 C59.0442823,28.8546994 59.234012,28.8124226 59.406015,28.7278195 C59.5595316,28.6515755 59.6925628,28.5396849 59.793985,28.4015038 L60.3473684,28.7894737 C60.1788686,29.0032241 59.9632273,29.1751195 59.7172932,29.2917293 C59.4443943,29.4148539 59.1474425,29.4754773 58.8481203,29.4691729 C58.5629379,29.472046 58.2797789,29.4210264 58.0135338,29.318797 C57.5199612,29.1293367 57.127993,28.7422749 56.9323308,28.2511278 C56.8285425,27.9874176 56.777454,27.7059198 56.7819549,27.4225564 C56.777765,27.1343205 56.8325191,26.8482686 56.9428571,26.5819549 C57.0468139,26.340115 57.2005236,26.122872 57.393985,25.9443609 C57.5863439,25.7665455 57.8123322,25.6290096 58.0586466,25.5398496 C58.3249329,25.4396515 58.6072166,25.3886977 58.8917293,25.389465 C59.0218609,25.3900993 59.151685,25.402176 59.2796992,25.4255639 C59.4124198,25.448136 59.5424395,25.4844205 59.6676692,25.5338346 C59.7905551,25.5825672 59.9079897,25.6440565 60.0180451,25.7172932 C60.1255088,25.7885393 60.2200875,25.8775246 60.2977444,25.9804511 L59.762406,26.4 Z" id="Path" fill="#231F20"></path>
                    <path d="M60.5383459,28.0421053 C60.5355572,27.8472955 60.5739918,27.6540976 60.6511278,27.475188 C60.792803,27.143785 61.0647794,26.8854074 61.4030075,26.7609023 C61.7636943,26.6286306 62.159614,26.6286306 62.5203008,26.7609023 C62.8585289,26.8854074 63.1305053,27.143785 63.2721805,27.475188 C63.3480745,27.654433 63.3859653,27.8474713 63.3834586,28.0421053 C63.3856542,28.2371975 63.3477798,28.4306638 63.2721805,28.6105263 C63.2021546,28.7758925 63.0999182,28.9256687 62.9714286,29.0511278 C62.8409058,29.1749663 62.6877357,29.2724846 62.5203008,29.3383459 C62.1607065,29.4766328 61.7626018,29.4766328 61.4030075,29.3383459 C61.2355726,29.2724846 61.0824025,29.1749663 60.9518797,29.0511278 C60.82339,28.9256687 60.7211537,28.7758925 60.6511278,28.6105263 C60.5743017,28.4309921 60.5358848,28.2373711 60.5383459,28.0421053 L60.5383459,28.0421053 Z M61.2075188,28.0421053 C61.2082917,28.1439822 61.2234799,28.245237 61.2526316,28.3428571 C61.282378,28.441766 61.329756,28.5344843 61.3924812,28.6165414 C61.456082,28.6984329 61.5366133,28.7656278 61.6285714,28.8135338 C61.8430718,28.9157964 62.0922666,28.9157964 62.3067669,28.8135338 C62.3984664,28.7652407 62.4789218,28.6981091 62.5428571,28.6165414 C62.6056904,28.5347731 62.6526181,28.4419378 62.681203,28.3428571 C62.711526,28.2454627 62.7272358,28.1441093 62.7278195,28.0421053 C62.7277164,27.9400634 62.7119955,27.8386384 62.681203,27.7413534 C62.6519638,27.6429921 62.6050863,27.5507658 62.5428571,27.4691729 C62.3161353,27.2067048 61.9423386,27.1273959 61.6285714,27.275188 C61.5367507,27.3219825 61.4561954,27.3881713 61.3924812,27.4691729 C61.3303479,27.5510495 61.2830179,27.6431649 61.2526316,27.7413534 C61.2231152,27.8388918 61.207919,27.9401994 61.2075188,28.0421053 L61.2075188,28.0421053 Z" id="Shape" fill="#231F20"></path>
                    <path d="M67.1669173,26.6616541 C67.3187678,26.6574563 67.4695412,26.6883314 67.6075188,26.7518797 C67.7244596,26.8079714 67.8272566,26.889695 67.9082707,26.9909774 C67.9878276,27.091146 68.0466173,27.2061695 68.081203,27.3293233 C68.1172809,27.4575371 68.1354978,27.5901153 68.1353394,27.7233083 L68.1353394,29.3654135 L67.4796992,29.3654135 L67.4796992,27.9097744 C67.4791733,27.8293088 67.4736489,27.7489535 67.4631579,27.6691729 C67.4525936,27.5898379 67.4281614,27.5129784 67.3909774,27.4421053 C67.3557302,27.3746753 67.3040008,27.3172557 67.2406015,27.275188 C67.1645465,27.2279021 67.0759242,27.2048288 66.9864662,27.2090226 C66.8943632,27.2067464 66.8033822,27.2296216 66.7233083,27.275188 C66.6517946,27.3184003 66.5902847,27.3763222 66.5428571,27.4451128 C66.495245,27.5163288 66.4601535,27.5951576 66.4390977,27.6781955 C66.4171167,27.7611182 66.4059962,27.8465442 66.406015,27.9323308 L66.406015,29.3654135 L65.7428571,29.3654135 L65.7428571,27.7789474 C65.7486468,27.6340232 65.7075103,27.4911003 65.6255639,27.3714286 C65.5374492,27.2584823 65.3984223,27.1974461 65.2556391,27.2090226 C65.165858,27.2070584 65.0771513,27.228846 64.9984962,27.2721805 C64.9283394,27.3122562 64.8677807,27.3671696 64.8210526,27.4330827 C64.7742898,27.5031367 64.7392448,27.5803371 64.7172932,27.6616541 C64.693319,27.7462907 64.6811737,27.833838 64.681203,27.9218045 L64.681203,29.3654135 L64.0255639,29.3654135 L64.0255639,26.7383459 L64.6481203,26.7383459 L64.6481203,27.1609023 L64.6601504,27.1609023 C64.6898814,27.0933254 64.7294032,27.0304958 64.7774436,26.9744361 C64.8286283,26.9141539 64.8872398,26.8605952 64.9518797,26.8150376 C65.0235073,26.7663848 65.1020935,26.7288662 65.1849624,26.7037594 C65.2788829,26.6745266 65.3768323,26.6603163 65.475188,26.6616541 C65.6549543,26.655434 65.8324769,26.7030876 65.9849624,26.7984962 C66.1187188,26.8898979 66.2260718,27.0148838 66.2962406,27.1609023 C66.3765496,27.0075463 66.4978423,26.8794862 66.6466165,26.7909774 C66.8049889,26.7011717 66.9849289,26.6564467 67.1669173,26.6616541 L67.1669173,26.6616541 Z" id="Path" fill="#231F20"></path>
                    <path d="M69.5308271,26.7383459 L69.5308271,27.1052632 L69.5473684,27.1052632 C69.5856045,27.0511459 69.6289078,27.0007933 69.6766917,26.9548872 C69.7343386,26.8988272 69.7996518,26.8512346 69.8706767,26.8135338 C69.9531824,26.769203 70.0404593,26.7343931 70.1308271,26.7097744 C70.2365104,26.6801965 70.3459072,26.6660155 70.4556391,26.6676692 C70.8055124,26.6631614 71.1405487,26.8087818 71.3759398,27.0676692 C71.4903961,27.1956878 71.5796763,27.344148 71.6390977,27.5052632 C71.7020163,27.6792828 71.7335825,27.8630797 71.7323308,28.0481203 C71.7338328,28.2335427 71.7027856,28.4177904 71.6406015,28.5924812 C71.5842791,28.7555418 71.4969626,28.9061755 71.3834586,29.0360902 C71.2704791,29.1628085 71.1328354,29.2651457 70.9789474,29.3368421 C70.8098593,29.4130537 70.626048,29.4510483 70.4406015,29.4481203 C70.2631128,29.4504173 70.0875345,29.4112855 69.9278195,29.3338346 C69.7817331,29.2649193 69.6577836,29.1565938 69.5699248,29.0210526 L69.5593985,29.0210526 L69.5593985,30.6781955 L68.9007519,30.6781955 L68.9007519,26.7383459 L69.5308271,26.7383459 Z M71.0631579,28.0421053 C71.0627577,27.9401994 71.0475615,27.8388918 71.0180451,27.7413534 C70.9876588,27.6431649 70.9403287,27.5510495 70.8781955,27.4691729 C70.8141446,27.3885016 70.7336672,27.3223768 70.6421053,27.275188 C70.5384926,27.223794 70.4238903,27.1984989 70.3082707,27.2015038 C70.1957953,27.1997362 70.0846606,27.2260984 69.9849624,27.2781955 C69.8921323,27.3280136 69.8094943,27.3948382 69.7413534,27.475188 C69.6748356,27.5564 69.6238585,27.6491784 69.5909774,27.7488722 C69.5573906,27.8456444 69.5396189,27.947197 69.5383459,28.0496241 C69.5391888,28.1520907 69.5569726,28.2537126 69.5909774,28.3503759 C69.6242241,28.4489959 69.6751837,28.5407232 69.7413534,28.6210526 C69.8092012,28.7009076 69.8919425,28.7667941 69.9849624,28.8150376 C70.1924158,28.9158281 70.4346518,28.9158281 70.6421053,28.8150376 C70.7338048,28.7667445 70.8142602,28.6996129 70.8781955,28.6180451 C70.9409207,28.535988 70.9882987,28.4432698 71.0180451,28.3443609 C71.0473374,28.2462575 71.0625271,28.1444865 71.0631579,28.0421053 L71.0631579,28.0421053 Z" id="Shape" fill="#231F20"></path>
                    <path d="M73.9969925,29.0315789 L73.9804511,29.0315789 C73.9063785,29.1573757 73.7956856,29.2575764 73.6631579,29.318797 C73.5087799,29.3960195 73.3379999,29.4347158 73.1654135,29.4315789 C73.0539384,29.4308908 72.9429198,29.4172658 72.8345865,29.3909774 C72.7215548,29.3645076 72.6141222,29.3181741 72.5172932,29.2541353 C72.4189219,29.1893206 72.3366337,29.1029179 72.2766917,29.0015038 C72.2088197,28.8848794 72.1754461,28.751385 72.1804511,28.6165414 C72.1714884,28.4437243 72.2315283,28.2744225 72.3473684,28.1458647 C72.4674201,28.0233883 72.6148139,27.9311383 72.7774436,27.8766917 C72.9656466,27.8121858 73.1611237,27.771272 73.3593985,27.7548872 C73.5729323,27.7338346 73.7819549,27.7233083 73.9864662,27.7233083 L73.9864662,27.6586466 C73.9966456,27.5143408 73.9289873,27.3755839 73.8090226,27.2947368 C73.6826941,27.2137013 73.5350044,27.1723272 73.3849624,27.1759398 C73.2467483,27.1759337 73.1102121,27.206218 72.9849624,27.2646617 C72.8673025,27.3163343 72.7598431,27.3886529 72.6676692,27.4781955 L72.3278195,27.0781955 C72.4771554,26.9401606 72.6532135,26.8342187 72.8451128,26.7669173 C73.0354521,26.6974512 73.2364785,26.6618262 73.4390977,26.6616541 C73.6358313,26.6579703 73.8312625,26.6942939 74.0135338,26.7684211 C74.1514699,26.8246603 74.2741181,26.9127815 74.3714286,27.0255639 C74.4585302,27.1291024 74.5212302,27.2509048 74.5548872,27.3819549 C74.5894454,27.5104445 74.6071377,27.6428846 74.6075188,27.7759398 L74.6075188,29.3729323 L73.993985,29.3729323 L73.9969925,29.0315789 Z M73.9864662,28.1669173 L73.8360902,28.1669173 C73.7288221,28.1669173 73.6175439,28.1714286 73.5022556,28.1804511 C73.3926113,28.1886215 73.2841938,28.2087922 73.1789474,28.2406015 C73.0886956,28.2677179 73.0048248,28.3127218 72.9323308,28.3729323 C72.866459,28.4314104 72.8305359,28.5165205 72.8345865,28.6045113 C72.833691,28.6574597 72.8477648,28.7095849 72.875188,28.7548872 C72.9019085,28.7967746 72.9385901,28.8313897 72.9819549,28.8556391 C73.0285034,28.8827039 73.0793763,28.9015269 73.1323308,28.9112782 C73.1863284,28.9219158 73.2412064,28.927454 73.2962406,28.9278195 C73.4823992,28.9506155 73.6688382,28.8876476 73.803054,28.7566483 C73.9372697,28.6256491 74.0047407,28.440792 73.9864662,28.2541353 L73.9864662,28.1669173 Z" id="Shape" fill="#231F20"></path>
                    <path d="M75.3759398,26.7383459 L76,26.7383459 L76,27.1609023 L76.0120301,27.1609023 C76.0777068,27.01879 76.1818975,26.8979288 76.312782,26.8120301 C76.4634743,26.7100639 76.6421587,26.6575096 76.8240602,26.6616541 C76.9759107,26.6574563 77.126684,26.6883314 77.2646617,26.7518797 C77.3816024,26.8079714 77.4843994,26.889695 77.5654135,26.9909774 C77.6449704,27.091146 77.7037602,27.2061695 77.7383459,27.3293233 C77.7744238,27.4575371 77.7926406,27.5901153 77.7924822,27.7233083 L77.7924822,29.3654135 L77.1353383,29.3654135 L77.1353383,27.9097744 C77.1355657,27.8292822 77.1300378,27.7488767 77.118797,27.6691729 C77.1094448,27.5897724 77.0854826,27.5127874 77.0481203,27.4421053 C77.012873,27.3746753 76.9611436,27.3172557 76.8977444,27.275188 C76.8216893,27.2279021 76.733067,27.2048288 76.643609,27.2090226 C76.5485076,27.2065891 76.4543429,27.2283194 76.3699248,27.2721805 C76.2962526,27.3120369 76.2317169,27.3668411 76.1804511,27.4330827 C76.1306534,27.5024047 76.0930229,27.5796997 76.0691729,27.6616541 C76.0435004,27.745995 76.0303278,27.8336433 76.0300752,27.9218045 L76.0300752,29.3654135 L75.3729323,29.3654135 L75.3759398,26.7383459 Z" id="Path" fill="#231F20"></path>
                    <path d="M78.0917293,26.7383459 L78.8255639,26.7383459 L79.5578947,28.6496241 L79.5699248,28.6496241 L80.2210526,26.7383459 L80.9052632,26.7383459 L79.6571429,29.9263158 C79.6147898,30.0365619 79.5645339,30.143607 79.5067669,30.2466165 C79.4548071,30.3358036 79.3882136,30.415614 79.3097744,30.4827068 C79.2301155,30.5498546 79.138194,30.6009221 79.0390977,30.6330827 C78.9170096,30.6685144 78.7902582,30.6852456 78.6631579,30.6827068 C78.6073993,30.6826208 78.5516836,30.6796091 78.4962406,30.6736842 C78.4383323,30.6686604 78.3809722,30.6585972 78.324812,30.643609 L78.3744361,30.0766917 C78.4164873,30.0908137 78.459792,30.1008845 78.5037594,30.1067669 C78.5426171,30.112173 78.5818227,30.1146862 78.6210526,30.1142857 C78.680132,30.1160329 78.7390883,30.107901 78.7954887,30.0902256 C78.841429,30.0752458 78.8828196,30.0488593 78.9157895,30.0135338 C78.9516209,29.9750707 78.981523,29.9314846 79.0045113,29.8842105 C79.0285714,29.8330827 79.0571429,29.7729323 79.0857143,29.7037594 L79.2165414,29.3699248 L78.0917293,26.7383459 Z" id="Path" fill="#231F20"></path>
                </g>
            </g>
        </g>
    </g>
</svg>
